<?xml version="1.0" standalone="no"?>
<!DOCTYPE svg PUBLIC "-//W3C//DTD SVG 20010904//EN"
 "http://www.w3.org/TR/2001/REC-SVG-20010904/DTD/svg10.dtd">
<svg version="1.0" xmlns="http://www.w3.org/2000/svg"
 width="1310.000000pt" height="1310.000000pt" viewBox="0 0 1310.000000 1310.000000"
 preserveAspectRatio="xMidYMid meet">
<metadata>
Created by potrace 1.11, written by Peter Selinger 2001-2013
</metadata>
<g transform="translate(0.000000,1310.000000) scale(0.100000,-0.100000)"
fill="#000000" stroke="none">
<path d="M4358 9105 c-2 -1 -23 -5 -48 -8 -25 -3 -67 -11 -95 -17 -27 -7 -59
-13 -70 -16 -38 -7 -160 -51 -220 -80 -224 -105 -404 -272 -500 -464 -21 -41
-40 -77 -42 -80 -2 -2 -156 -5 -341 -5 -322 -1 -339 -2 -377 -22 -83 -44 -119
-103 -129 -218 -4 -38 -9 -95 -12 -125 -3 -30 -7 -71 -9 -90 -2 -19 -7 -64
-10 -100 -3 -36 -8 -81 -10 -100 -2 -19 -7 -64 -10 -100 -3 -36 -8 -81 -10
-100 -2 -19 -7 -69 -10 -110 -4 -41 -8 -86 -10 -100 -2 -14 -6 -59 -9 -100 -4
-41 -9 -91 -11 -110 -2 -19 -7 -64 -10 -100 -3 -36 -8 -81 -10 -100 -3 -19 -7
-64 -10 -100 -3 -36 -8 -76 -10 -90 -2 -14 -7 -63 -10 -110 -3 -47 -8 -96 -10
-110 -2 -14 -6 -53 -9 -87 -15 -162 -18 -190 -22 -223 -2 -19 -6 -64 -9 -100
-3 -36 -8 -81 -10 -100 -2 -19 -7 -62 -10 -95 -3 -33 -8 -80 -11 -105 -2 -25
-7 -74 -9 -110 -3 -36 -8 -79 -10 -97 -3 -18 -7 -63 -10 -100 -3 -37 -8 -86
-10 -108 -2 -22 -7 -67 -10 -100 -3 -33 -8 -76 -10 -95 -3 -19 -7 -64 -10
-100 -3 -36 -7 -85 -10 -110 -15 -145 -15 -172 -6 -207 16 -60 63 -117 118
-144 l48 -23 802 -1 c441 0 803 -2 806 -5 2 -3 27 -72 57 -155 29 -82 68 -179
88 -215 62 -112 165 -198 286 -236 71 -23 463 -28 562 -8 135 28 239 101 312
217 45 73 56 99 88 192 13 39 35 101 49 139 14 38 25 70 25 70 0 1 24 2 53 1
l52 0 42 -77 c58 -107 91 -153 173 -241 165 -176 419 -303 690 -344 99 -15
377 -8 470 11 210 44 390 125 546 248 l61 47 19 -41 c25 -56 121 -149 186
-181 112 -55 119 -55 871 -53 600 2 698 5 738 19 220 74 325 229 328 486 1 63
4 118 7 120 3 3 166 6 362 6 342 1 359 2 397 22 50 26 90 68 108 113 14 32 18
61 33 230 2 30 6 69 9 85 2 17 7 66 10 110 4 44 9 87 10 96 2 9 6 56 10 105 4
49 8 96 10 104 2 8 6 51 10 95 4 44 8 91 10 105 2 14 7 61 10 105 4 44 8 91
10 105 2 14 7 54 10 90 3 36 8 85 10 110 3 25 7 72 10 105 3 33 7 76 10 95 2
19 6 64 10 100 3 36 7 81 10 100 2 19 7 64 10 100 7 92 16 179 21 220 2 19 6
64 9 100 3 36 8 81 10 100 2 19 7 62 10 95 3 33 8 80 11 105 2 25 7 74 9 110
3 36 8 80 10 99 3 18 8 63 10 100 3 36 8 84 10 106 2 22 7 67 10 100 3 33 8
83 11 110 3 28 7 64 9 80 1 17 6 71 11 120 19 190 9 240 -59 308 -63 63 -29
60 -852 63 -412 1 -752 2 -756 3 -3 0 -13 25 -23 54 -10 28 -21 61 -26 72 -4
11 -13 36 -20 55 -74 214 -159 327 -299 393 -102 48 -161 56 -401 53 -189 -3
-222 -6 -273 -24 -115 -41 -199 -106 -263 -202 -37 -56 -48 -78 -79 -165 -14
-38 -29 -77 -32 -85 -3 -8 -7 -17 -8 -20 -8 -31 -49 -130 -54 -131 -3 -1 -34
-2 -68 -3 l-62 -1 -22 50 c-104 246 -372 474 -624 531 -190 44 -249 47 -780
47 -411 0 -477 -2 -528 -17 -115 -34 -200 -96 -263 -193 l-34 -52 -72 55 c-86
64 -259 152 -376 190 -129 41 -269 62 -424 62 -75 0 -138 -2 -140 -3z"/>
</g>
</svg>
